<?xml version="1.0" encoding="UTF-8"?><svg id="uuid-2a1b3904-523a-441c-9685-f5717e2818cd" xmlns="http://www.w3.org/2000/svg" viewBox="0 0 178.74 45"><g id="uuid-390ac25e-c721-489c-945b-2a288d079d35"><path d="M65.34,11.95c4.57,0,8.64,1.78,11.69,4.83,2.8,3.05,4.83,7.12,4.83,11.69v12.2c0,2.54-1.78,4.32-4.32,4.32h-12.2c-4.58,0-8.65-1.78-11.69-4.83-3.06-3.05-4.83-7.12-4.83-11.69s1.78-8.65,4.83-11.69c3.05-3.05,7.12-4.83,11.69-4.83h0ZM65.09,37.88h.25c2.54,0,4.83-1.01,6.61-2.79,1.53-1.53,2.8-4.07,2.8-6.61h0c0-2.54-1.27-5.09-2.8-6.61-1.78-1.78-4.07-2.8-6.86-2.8-2.54,0-4.83,1.02-6.61,2.8-1.78,1.52-2.8,4.06-2.8,6.61s1.02,5.09,2.8,6.61c1.78,1.78,4.07,2.79,6.61,2.79h0Z" style="fill:#eb190e;"/><path d="M18.56,23.9c-.51-3.3-2.8-5.09-5.84-5.09s-5.34,1.78-5.85,4.83c-.25.51-.25,3.05-.25,3.81v14.24c0,1.78-1.53,3.05-3.3,3.05s-3.3-1.27-3.3-3.05v-16.78c0-8.65,5.59-12.71,12.71-12.71,3.56,0,7.37,1.27,9.15,4.83,2.04-3.56,5.85-4.83,9.41-4.83,7.12,0,12.71,4.06,12.71,12.71v16.78c0,1.78-1.53,3.05-3.3,3.05s-3.3-1.27-3.3-3.05v-14.24c0-.76-.25-3.3-.25-3.81-.51-3.06-2.8-4.83-5.85-4.83s-5.34,1.78-5.84,5.09c-.26.76-.26,1.78-.26,2.8v15c0,1.79-1.27,3.06-3.3,3.06-1.78,0-3.3-1.27-3.3-3.06v-15c0-1.02.25-2.03,0-2.8h-.01Z"/><path d="M121.02,15.51c0-1.78,1.53-3.06,3.3-3.06s3.3,1.27,3.3,3.06v26.19c0,1.78-1.52,3.05-3.3,3.05s-3.3-1.27-3.3-3.05V15.51Z"/><circle cx="124.33" cy="4.07" r="4.07"/><path d="M87.46,17.8c-1.02-1.27-.76-3.56.51-4.57,1.53-1.02,3.56-.76,4.58.51l7.88,9.66,7.38-9.66c1.27-1.27,3.3-1.52,4.57-.51,1.52,1.27,1.78,3.3.51,4.57l-8.39,10.68,8.65,10.93c1.27,1.52,1.02,3.56-.51,4.83-1.52,1.02-3.56.76-4.57-.51l-7.88-10.42-7.63,10.42c-1.27,1.27-3.3,1.52-4.58.51-1.52-1.27-1.78-3.3-.76-4.83l8.64-10.93-8.39-10.68h0Z"/><path d="M153.31,23.9c-.51-3.3-2.8-5.09-5.85-5.09s-5.34,1.78-5.85,4.83c0,.76-.25,3.05-.25,3.81v14.24c0,1.78-1.27,3.05-3.3,3.05-1.78,0-3.3-1.27-3.3-3.05v-16.78c0-8.65,5.6-12.71,12.72-12.71,3.56,0,7.37,1.27,9.41,4.83,1.78-3.56,5.59-4.83,9.15-4.83,7.12,0,12.71,4.06,12.71,12.71v16.78c0,1.78-1.52,3.05-3.3,3.05s-3.3-1.27-3.3-3.05v-14.24c0-.76,0-3.3-.26-3.81-.51-3.06-2.79-4.83-5.84-4.83-2.8,0-5.34,1.78-5.85,5.09-.25.76,0,1.78,0,2.8v15c0,1.79-1.52,3.06-3.3,3.06s-3.3-1.27-3.3-3.06v-17.8h-.26Z"/></g></svg>