<svg id="Layer_1" data-name="Layer 1" xmlns="http://www.w3.org/2000/svg" viewBox="0 0 312.65 102.12"><title>Neuralink logo - Brandlogos.net</title><g id="layer1"><g id="g5482"><path id="path902" d="M571.67,345.81l-4.46-8.73-2.09,2.17-1.4,6.56h-4.31l4.46-21.33h4.31l-1.91,9.15,8.82-9.15h5.55l-10.13,10,6.22,11.32Zm-24.67,0-5.7-14.33-2.61,14.33H535l3.84-21.24h3.82l5.54,13.82,2.54-13.82h3.71l-3.84,21.24Zm-25.56-.06,4.26-21.28h4.11l-4.26,21.28Zm-20-.14,4.52-20.93h4.37l-3.66,17h8.65l-.84,3.92Zm-62.46.63a8.18,8.18,0,0,1-5.88-2,7.16,7.16,0,0,1-2.09-5.43,6.7,6.7,0,0,1,.14-1.43l2.41-12.78h4l-2.39,12.66a3.47,3.47,0,0,0-.11,1.05,3.9,3.9,0,0,0,1.08,2.83,3.84,3.84,0,0,0,2.88,1.11q3.79,0,4.72-5l2.42-12.66h4l-2.44,12.75q-.93,4.69-3.06,6.79a7.66,7.66,0,0,1-5.62,2.1Zm51.89-.29-.46-3.64H482.6l-1.82,3.64h-4.6l11-21.46h4.85l3,21.46ZM489,329l-4.55,9.23h5.64Zm-22.77,16.7-2.27-7.56h-3.16l-1.5,7.56h-4.09l4.23-21.28h8.2a5.73,5.73,0,0,1,4.23,1.71,5.84,5.84,0,0,1,1.7,4.29,7.82,7.82,0,0,1-1.56,4.88,6.37,6.37,0,0,1-3.91,2.52l2.65,7.88Zm-.34-11.55a3.31,3.31,0,0,0,2.5-.92,3.27,3.27,0,0,0,.89-2.37,2.31,2.31,0,0,0-.74-1.77,2.38,2.38,0,0,0-1.68-.69h-4.11l-1.15,5.75ZM409.7,345.8l4.16-21.48H427.2l-.79,4h-9.3l-.88,4.54h9.1l-.8,4h-9.1l-.93,4.86h9.3l-.76,4ZM397,345.73l-5.6-14.31-2.57,14.31h-3.64L389,324.53h3.75l5.44,13.8,2.49-13.8h3.64l-3.77,21.21Z" transform="translate(-268 -306)"/></g><path id="path5412" d="M268,371.34h88.85l-.68-4.83H280l54.16-52.2c7.43-7.43,20.54-2.62,22.7,9.22,3.89,24.47,7,50.51,10.28,75.56,1.71,9.49,11.88,11.7,17.9,5.68l37.82-38.24H373.51l.66,4.75h37.4L382.07,401c-4.1,4.1-9,4-10.85-2.95l-10.29-76.58h0c-2.36-13.81-19-20.77-30-10.72Z" transform="translate(-268 -306)"/></g></svg>