<?xml version="1.0" encoding="UTF-8"?><svg id="uuid-3ed03634-7a83-4fc3-9eaf-a65c9c566b4b" xmlns="http://www.w3.org/2000/svg" viewBox="0 0 148 24.77"><path d="M0,6.83h15.52c.97,0,1.77.11,2.4.3.61.2,1.17.55,1.64,1,.45.48.76,1.02.95,1.64s.29,1.43.29,2.45v1.34c0,1.72-.29,3.01-.87,3.82-.58.81-1.28,1.3-2.85,1.53l4.25,5.86h-4.94l-3.85-5.84H4.41v5.84H0V6.83ZM4.41,14.98h10.39c.61,0,1.03-.08,1.24-.27.21-.19.34-.54.34-1.08v-1.51c0-.51-.13-.86-.34-1.05s-.63-.3-1.24-.3H4.41v4.2Z" style="fill-rule:evenodd;"/><path d="M27.49,6.82v12.64h0c0,.54.1.89.32,1.08.21.19.63.27,1.27.27h8.82c.61,0,1.03-.08,1.24-.27.21-.19.34-.54.34-1.08V6.82h4.41v12.54c0,1.02-.11,1.86-.29,2.48-.17.62-.5,1.18-.95,1.64-.45.47-1.01.81-1.64,1-.63.22-1.43.3-2.4.3h-10.25c-1.01,0-1.8-.08-2.43-.3-.62-.18-1.18-.52-1.61-1-.47-.45-.81-1.02-.98-1.64-.18-.62-.26-1.45-.26-2.48V6.82h4.41ZM59.89,24.77v-13.99h8.34v-3.95h-21.07v3.95h8.34v13.99h4.39ZM75.9,6.82v12.64h0c0,.54.1.89.32,1.08.21.19.63.27,1.27.27h8.82c.61,0,1.03-.08,1.24-.27.21-.19.34-.54.34-1.08V6.82h4.41v12.54c0,1.02-.11,1.86-.29,2.48-.17.62-.5,1.18-.95,1.64-.45.47-1.01.81-1.64,1-.63.22-1.43.3-2.4.3h-10.25c-1,0-1.8-.08-2.43-.3-.62-.18-1.18-.52-1.61-1-.47-.45-.81-1.02-.98-1.64-.18-.62-.26-1.45-.26-2.48V6.82h4.41Z"/><path d="M115.36,12.04v-.35c0-1.67-.42-2.9-1.27-3.68-.85-.78-2.2-1.18-4-1.18h-14.52v17.95h15.56c1.8,0,3.15-.38,4-1.16s1.27-2.02,1.27-3.69v-.38c0-1.67-.42-2.85-1.27-3.55-.15-.1-.31-.19-.48-.27-.15-.06-.3-.12-.46-.16-.13-.04-.26-.09-.39-.13.58-.32.98-.75,1.22-1.24.21-.49.34-1.21.34-2.15M99.99,17.59h10.45c.61,0,1.03.11,1.24.3.21.19.34.54.34,1.05v.54c0,.54-.13.89-.34,1.08s-.64.27-1.24.27h-10.45v-3.23ZM99.99,10.78h9.39c.64,0,1.06.11,1.27.3.21.19.32.54.32,1.05v.54c0,.54-.11.89-.32,1.08s-.64.27-1.27.27h-9.39v-3.23Z" style="fill-rule:evenodd;"/><path d="M138.97,10.78h-15.91v3.04h13.88v3.96h-13.88v3.04h15.91v3.95h-20.32V6.82h20.32v3.95Z"/><path d="M144.61,6.82c1.87,0,3.39-1.53,3.39-3.41s-1.52-3.41-3.39-3.41-3.39,1.53-3.39,3.41,1.52,3.41,3.39,3.41" style="fill:#ed143b;"/></svg>